<?xml version="1.0" encoding="utf-8"?>
<!-- Generator: Adobe Illustrator 25.0.0, SVG Export Plug-In . SVG Version: 6.00 Build 0)  -->
<svg version="1.1" id="Ebene_1" xmlns="http://www.w3.org/2000/svg" xmlns:xlink="http://www.w3.org/1999/xlink" x="0px" y="0px"
	 viewBox="0 0 1000 1000" style="enable-background:new 0 0 1000 1000;" xml:space="preserve">
<style type="text/css">
	.st0{fill:#FFFFFF;}
	.st1{fill:#82B3C8;}
	.st2{fill:#82B0C3;}
	.st3{fill:#8ABCD2;}
	.st4{fill:#739EB5;}
	.st5{fill:#628D9E;}
	.st6{fill:#11171C;}
	.st7{fill:#7E7F7F;}
	.st8{fill:#0C1C24;}
	.st9{fill:#0F2530;}
</style>
<path class="st0" d="M1011.9,3.8c-341.3,0-682.5,0-1023.8,0c0.2-0.3-0.5-1,0.5-1c1.3,0,2.7,0,4,0c338.3,0,676.5,0,1014.8,0.1
	C1008.8,2.9,1010.8,1.7,1011.9,3.8z"/>
<g>
	<path class="st1" d="M394.3,461.6c-5.6-14.3-11.7-28.6-16.8-43.1c-2.3-6.6-4.2-8.9-10.9-4.4c-7.9,5.3-16.5,9.7-25,14.1
		c-3.3,1.7-4,3.6-2.7,7c14,37.3,27.1,75,39.8,112.8c-0.3,2-0.6,3.9,1.2,5.5c0,1.4,0.1,2.8,0.1,4.1c-0.4,0.5-0.8,1-1.3,1.5
		c-9.1-23.5-18.2-47.1-27.3-70.6c-6.9-17.9-13.7-35.8-20.8-53.7c-1.4-3.6-1.6-6.9-0.7-10.8c9.9-41.2,19.5-82.5,29.2-123.8
		c0.4-1.8,1-3.5,1.9-6.4c7.1,7.9,13.6,15.1,20.2,22.4c13.4,14.9,26.4,30.2,40.5,44.4c7.1,7.2,7.6,15.9,9.6,24.6c0.7,3,1.3,6,2,9
		c0.8-0.1,1.6-0.2,2.4-0.3c-1.8-26.7-3.5-53.4-5.3-80.1c3.5,1,5.6,2.6,4.4,6.8c-0.7,2.2,0.1,4.2,3,4.4c0.5,9.3,1.2,18.5,1.5,27.8
		c0.7,18,1.2,36,3.2,54c0.1,11.6,0.2,23.3,0.4,34.9c-0.3,2.4-0.6,4.8-1,7.7c-1.6-1.8-2.6-3-3.6-4.2c-3.1-15-6.3-30-9.4-45
		c-1.3-7.5-3.4-15-4.9-22.4c-1.3-6.6-3.2-5.1-6.9-3.2c-8.8,4.4-17.6,8.9-26.4,13.2c-12.8,6.4-14.4,10.5-9.6,24.6
		c5.1,15.1,10.1,30.3,15.2,45.4C395.9,459.4,396.1,461.1,394.3,461.6z M338,423.2c9.9-4.8,18.6-9,27.1-13.3c10-5,12.6-9.7,10.8-20.8
		c-2.4-14.4-5.2-28.8-7.9-43.2c-1.7-9.3-3.5-18.6-5.3-27.9C352.5,352.4,346.2,387.3,338,423.2z M368.2,310.1
		c-0.7,1.3-1.2,1.8-1.2,2.1c4.3,23.8,8.7,47.5,13,71.3c0.7,4,2.7,3,5.1,1.9c10.3-4.9,20.6-9.9,31-14.6c3.6-1.7,4.2-3.2,1.4-6.3
		c-5.6-6.1-10.7-12.5-16.3-18.6C390.3,334,379.4,322.2,368.2,310.1z M435.9,404.5c0.1-2.4,1.3-4.9-1.4-7.8
		C433.9,399.9,434.4,402.3,435.9,404.5z"/>
	<path class="st2" d="M497.3,754.7c2.4,19.9,4.8,39.8,7.2,59.7c0.5,0.1,1,0.2,1.5,0.3c4.3-11.6,8.5-23.1,12.8-34.7
		c12.4-33.9,25.5-67.6,36.4-102.1c1.6-3.9,2.7-8,4.9-11.5c3.3-5.3,1.7-9.2-2.1-13.2c-4.9-5.2-9.6-10.8-14.8-16.8
		c6.3-1,6.6,4.9,10.1,6.2c1.9,2.2,3.3,5,5.7,6.6c7.6,5.1,8.4,11.4,4.3,19c-0.5,1.5-0.9,3.1-1.7,4.5c-7.1,12.5-5.4,22.3,7,31
		c5.4,3.9,7.1,4.7,10.8-1.3c7.6-12.2,16-23.8,24.1-35.7c0.5,0.3,0.9,0.6,1.4,0.9c-4.5,8-9.1,16.1-13.6,24.1
		c-1.3,1.5-2.9,2.8-2.6,5.1c2.2-0.3,3.1-1.9,4.1-3.3c13.7-12.8,27.6-25.4,40.2-39.4c-3.6-3.3-9.2-0.4-12.3-5.1c4.8,0,9.1-0.1,13.3,0
		c2.5,0.1,3.9-0.7,4.1-3.5c1.1-14.7,2.3-29.4,3.5-44.4c-1.2,0.5-1.9,0.5-2.1,0.8c-6.8,10.1-13.6,20.3-20.5,30.4
		c-1.7,2.4-2.3,6.2-6.3,6.5c-0.3-1.5-0.5-3-0.8-4.5c-0.2-0.7-0.5-1.4-0.7-2.1c0.9-7.1-4.5-13.1-3.4-20.3c5.9-2.1,1.3,4.6,4.2,5
		c0.4,1.6,0.8,3.3,1.1,4.9c0.6,2.9,1.1,5.7,1.8,8.9c3-1.8,3.7-4,4.7-6.1c2.8-4.5,5.6-9,8.5-13.5c3.3-5,6.5-10,10.3-15.8
		c-5.7,0.4-10.4,1.8-14.8,3.7c-2.4,1-4.6,3-6.9-0.1c9.1-5.6,19.4-7.9,30-11.6c-0.8,21.5-4.1,41.8-4,62.3c0,2.8-1.8,4.3-3.6,5.9
		c-20,18.8-40.1,37.6-60,56.7c-3.5,3.3-5.2,2.9-8.1-0.4c-4.7-5.4-9.8-10.4-15.7-16.6c-19.5,47.6-33,96.3-52.7,144.9
		c-4.5-12.2-8.4-22.6-12.2-33.1c-14.3-39.5-28.5-79.1-42.8-118.7c-1.2-3.3-2.3-6.5-1.6-10.1c1.1-6.1,2.3-12.3,3.7-20.1
		c4,5.8,2.3,10.7,1.5,15.1c-0.7,4.1-0.9,7.7,0.8,11.6C468,723.5,480,763,494.6,801.5c0.4,1.1,1,2.2,2.7,3.1
		c-0.6-12.9-1.2-25.9-1.8-38.8C496.9,762.3,493.8,758,497.3,754.7z"/>
	<path class="st1" d="M624,564.2c12.1-29.9,24.1-59.8,36.5-89.5c2.3-5.4,1.9-8.3-3.3-11.6c-9.5-6-18.6-12.5-27.6-19.2
		c-5.1-3.8-8-4.2-11.5,2.3c-8.4,15.5-17.7,30.4-26.6,45.6c-0.7,0-1.5,0.1-2.2,0.1c2.5-5.3,5-10.6,7.5-15.9c1.7-3,3.5-5.9,5-9
		c4.7-9.2,13.4-18,13-27.8c-0.4-10-6.8-19.9-11.1-29.7c-1.6-3.6-1.4-8.3-5.5-10.9c-4.3,10.1-8.4,19.7-12.6,29.3
		c-1.1,0-2.3-0.1-3.4-0.1c2.2-5.3,4.3-10.7,6.5-16c1.7-1.1,1.8-2.9,1.6-4.6c1.6-10.4,7.8-17.1,16.7-22.6c16.3-10,32.1-21,48.7-32.1
		c3,9.6,3.2,19.1,4.5,28.5c3.2,23.5,6.1,47,9.5,70.5c1.6,10.7,1.2,20.4-4,30.6c-14.1,28.1-27,56.7-40.3,85.2
		C624.2,566.6,624.2,565.4,624,564.2z M628.1,414.6c0.9,0.1,1.7,0.3,2.6,0.4c-1.5,5.1-3,10.2-4.5,15.3c-0.8,2.7-1,5.3,1.6,7.2
		c11,7.7,22.4,14.7,35.7,21.9c-4.5-31.6-4.3-62-11.1-93.6c-5.3,11.3-9.7,20.7-14,30c-0.9,0-1.8-0.1-2.8-0.1
		c3.7-9.8,7.5-19.7,11.8-31.1c-15.8,9.6-29.4,18.8-42.6,28.8c-1.8,1.3-4.1,2.3-2.3,5.7c5.2,10.1,10.8,20,18.4,29.9
		C623.7,423.5,625.9,419,628.1,414.6z"/>
	<path class="st1" d="M583.5,323.6c1.1-3.4,1.2-6-3.5-6.8c-4.9-0.7-9.7-2.1-14.6-3.1c-4.3-2.2-8.9-3.2-13.7-3.3
		c-0.1-1.7-0.3-3.5,1.6-4.5c1.6,0.2,3.2,0.3,4.8,0.5c1.4,1.5,3.2,1.3,5,1c6.6-0.5,13,2.8,20.6,1.3c-19.8-39.6-34.6-81.1-56.2-119.5
		c0.9-2.3,3.4-3.9,3.3-6.7c19.3,42.9,42.2,84,62.7,126.2c1.2,2.5,2,4.8,1.4,7.6c-10.2,44.9-18.7,90.2-27.4,135.4
		c-1.3,0-2.6,0-3.9-0.1c1.7-10.8,3.3-21.6,5-32.4c3.9-25.5,7.9-51,11.8-76.6c0.1-1,0.3-2,0.4-3C582.7,334.5,583.1,329,583.5,323.6z"
		/>
	<path class="st3" d="M530.9,182.5c0.1,2.8-2.4,4.4-3.3,6.7c-2.2-3.7-4.3-7.5-7.2-12.4c-4.2,23.6-7.9,45.7-12,67.7
		c-2.9,15.8-3.6,32.1-9.2,47.5c-0.9,2.5,0.7,3.7,2.4,4.1c2.1,0.6,4.2,0.9,4.9,3.3c-3.7,3.2-7.4,6.5-11.1,9.7
		c-3.9-2.1-1.9-7.1-4.7-9.7c1.5-2.7,3.1-5.5,4.6-8.2c0.3-0.4,0.4-0.8,0.3-1.3c-0.1-0.5-0.3-1-0.5-1.5c0.1-1.1,0.1-2.2,0.2-3.3
		c2.3-5.7,3.2-11.6,3.6-17.6c6.9-27.1,9.7-54.9,13.9-82.5c-15.4,21.7-31.4,42.6-45,65.2c-0.4,0.4-0.7,0.8-1.1,1.3
		c-0.4,0.5-0.8,1-1.2,1.5c-6.7,9.4-13.4,18.8-20.1,28.2c0.3-3.9,1.6-7.3,3.6-10.9c2.2-4.2,7.5-7.8,5-13.8
		c21.5-31.3,42.9-62.6,64.4-93.9c0.6-0.8,1.4-1.5,2.7-3C524.5,167.5,527.7,175,530.9,182.5z"/>
	<path class="st1" d="M453.9,256.4c2.6,6-2.7,9.7-5,13.8c-1.9,3.6-3.2,7-3.6,10.9c-1.1,4.6-8.4,7.7-5.9,11.9
		c2.1,3.5,8.4,4.5,12.9,6.7c0.2,0.1,0.5,0.1,0.8,0.1c2.5,1.4,4.9,2.9,7.5,4.2c16.8,8,16.8,8,30.1-4.6c2.8,2.6,0.8,7.6,4.7,9.7
		c-1.5,3-4.8,4.1-6.9,6.4c-2.1,2.5-5.7,3.9-5.8,8c-0.6,21.9-3.5,43.8-3,65.8c-0.5,4.5-1.3,9-0.5,13.5c-1.1,1.2-1,2.6-0.6,4
		c-0.3,4.3-0.5,8.6-0.8,12.9c-0.5,0-1,0-1.4,0c-0.2-10.1-0.4-20.3-0.6-30.4c0.3-20.8,0.4-41.7,0.9-62.5c0.1-3.9-1.8-5.7-4.6-7.5
		c-11.3-7-22.6-14.2-33.9-21.3c-8.2-4-8.2-4-8.2,5.9c-2.6-8.4-0.6-15.3,5.4-22.1C442.2,274,447.8,265,453.9,256.4z"/>
	<path class="st2" d="M415.4,609c-6.3,14.2-0.8,26.3,6.5,38.1c-0.5,0.6-1.1,1.3-1.6,1.9c-3.1-5-6.4-9.9-9.3-14.9
		c-1.6-2.7-3.6-3.7-6.6-2.5c-5.7,2.2-11.3,4.3-17.6,6.6c14.3,10.2,27.9,19.9,41.5,29.7c0,1.4-0.2,2.7-1.6,3.5
		C411.5,661.2,396.3,651,381,641c-2.9-1.9-2.7-3.7-1.7-6.6c3.7-10.5,7.3-21,10.3-31.7c1.9-7,5.2-8.4,11.2-4.8c0,0.9,0,1.9,0,2.8
		c-2.4-0.3-5-2.1-6.3,2c-3.1,9.9-6.6,19.8-10.1,30.3c14.9-3.2,27.7-7.1,29.4-24.1C414.3,609,414.9,609,415.4,609z"/>
	<path class="st2" d="M460.3,657c6,5.2,12.3,10.2,18,15.7c3.2,3.1,5,2.7,7.3-0.6c3.4-5,7.1-9.8,10.6-14.7c1.9-2.8,3.9-5.5,5.8-8.3
		l0.8,0l0.8,0.1c-1.8,9.2-8.7,16-11.7,24.7c-1.5,2.4-3,4.9-4.5,7.3c-2.5,6.4-2.1,12.8-0.2,19.3c0.1,3.2,0.3,6.4,0.4,9.6
		c-0.3,2.7-0.7,5.4,0.7,8c0.1,1,0.2,2.1,0.4,3.1c-0.8,0-1.6,0.1-2.4,0.1c-0.1-1-0.2-2.1-0.2-3.1c0.3-2,0.3-3.9-0.9-5.6
		c-0.2-21.2-8.7-38.3-25.2-51.6c-0.6-0.5-0.9-1.3-1.4-1.9C459.1,658.3,459.7,657.6,460.3,657z"/>
	<path class="st4" d="M560.9,466.3c0.9-4.9,1.9-9.7,2.8-14.6c1.3,0,2.6,0,3.9,0.1c0.4,1.4-0.6,3.5,1.4,4.1c1.8,0.6,1.9-1.4,2.4-2.5
		c3.7-8.5,7.3-17.1,10.9-25.7c1.1,0,2.3,0.1,3.4,0.1c-5.8,14.9-11.6,29.9-17.5,44.8c-3.8,9.3-7.6,18.5-11.2,27.4
		c-0.8,0.4-1,0.5-1.2,0.6C557.5,489.2,559.2,477.8,560.9,466.3z M566.9,463.2c0.6-1.1,1.1-1.7,1.3-2.3c0.5-1.1,0.9-2.9-0.9-2.4
		C566,458.7,565.8,460.7,566.9,463.2z"/>
	<path class="st5" d="M438.3,445.3c1,1.2,2,2.4,3.6,4.2c0.4-2.9,0.7-5.3,1-7.7c2.2,17.3,2.6,34.6,1.7,52
		C442.5,477.7,440.4,461.5,438.3,445.3z"/>
	<path class="st4" d="M383.1,562.7c2.6,14.5,12.1,21.2,26,23c1.4,0.2,4,0,4.5,3.8c-7.3-1.6-14.1-3.2-21-4.7
		c-9.8-2.1-7.5-11.6-10.7-17.6C383.5,566,382.9,564.2,383.1,562.7z"/>
	<path class="st3" d="M429.9,303.9c0.1-9.8,0.1-9.8,8.2-5.9c-0.3,1-0.6,2.1-0.9,3.1c-0.1,0.2-0.4,0.3-0.4,0.4c0.1,0.4,0.3,0.7,0.5,1
		c0.2,7.5,0.3,15,0.5,22.5c-2.9-0.2-3.6-2.2-3-4.4c1.2-4.2-0.9-5.8-4.4-6.8C430.2,310.6,430.1,307.3,429.9,303.9z"/>
	<path class="st4" d="M558.2,639.4c-2.8-3-5.4-6.2-8.3-9c-1.3-1.3-1.4-1.9,0.3-2.6c8.7,11,16.1,3.7,23.8-1.5
		c4.2-2.8,8.5-5.4,12.8-8.1c0.4,0.5,0.9,0.9,1.3,1.4C578,626.1,569.1,634.3,558.2,639.4z"/>
	<path class="st5" d="M396.2,458c2,1.7,1.2,4.4,2.3,6.3c3.8,11.2,9.1,21.9,10.4,33.9c-6.6-11.5-10.1-24.3-14.6-36.6
		C396.1,461.1,395.9,459.4,396.2,458z"/>
	<path class="st3" d="M445.8,597.8c7.5,5.1,11.4,13,16.2,20.2c2.3,3.5,3.9,2.6,6.2,0.5c0.8,3-0.2,5.5-2.3,6.4
		c-2.9,1.2-3.9-2-5.2-3.8c-5.3-7.2-10.3-14.5-15.4-21.8C445.5,598.8,445.7,598.3,445.8,597.8z"/>
	<path class="st4" d="M420.3,649c0.5-0.6,1.1-1.3,1.6-1.9c4.3,7,8.5,14.1,12.8,21.1c-6.3,6.8,2.9,6.5,4.5,9.7l0.5-0.1
		c-6.5,2.2-8.4-4.8-13-6.4c1.4-0.8,1.6-2.1,1.6-3.5c1.7,0.3,3.4,0.8,1.8-2C426.8,660.3,423.6,654.6,420.3,649z"/>
	<path class="st5" d="M400.8,600.7c0-0.9,0-1.9,0-2.8c5.6,1.3,11.3,6.5,16.6-1.2c1.3-1.9,4.9-0.8,7.9,0.2c-6.7,0.7-9.4,4.3-8.6,10.5
		c-0.5,0.5-0.9,1.1-1.4,1.6c-0.6,0-1.1,0-1.7,0c-0.5-2,1-4.7-3.2-5C407.3,603.7,404.1,601.9,400.8,600.7z"/>
	<path class="st4" d="M624,564.2c0.1,1.2,0.1,2.4,1.4,3c-3.7,8.7-7.5,17.5-12.6,25.5c0,0,0,0,0,0c0-1.4,0-2.8,0-4.2
		C616.6,580.4,620.3,572.3,624,564.2z"/>
	<path class="st5" d="M589.3,491.9c0.7,0,1.5-0.1,2.2-0.1c-0.4,1.1-0.8,2.2-1.3,3.3c-3.1,1.9-2.3,6.9-6.5,7.9l0.1,0.1
		C584.4,498.8,587.1,495.5,589.3,491.9z"/>
	<path class="st1" d="M383.1,562.7c-0.2,1.6,0.4,3.4-1.3,4.5c-1-2.7-2-5.4-3.1-8.1c0.4-0.5,0.8-1,1.3-1.5c0.5,0,0.9,0,1.4,0
		C382,559.3,382.6,561,383.1,562.7z"/>
	<path class="st4" d="M595.3,614c-2.4,1.8-4.9,3.7-7.3,5.5c-0.4-0.5-0.9-0.9-1.3-1.4c2.2-2.3,4.8-3.9,7.8-5
		C594.7,613.4,595,613.7,595.3,614z"/>
	<path class="st4" d="M381.5,557.7c-0.5,0-0.9,0-1.4,0c0-1.4-0.1-2.8-0.1-4.1C381.2,554.6,381.7,556,381.5,557.7z"/>
	<path class="st4" d="M590.3,407.1c0.1,1.8,0.1,3.5-1.6,4.6C589.3,410.2,589.8,408.7,590.3,407.1z"/>
	<path class="st4" d="M454,644.2c-0.6,0-1.3,0-1.9,0c0-1.4,0-2.8,1.7-3.3C453.9,642.1,454,643.2,454,644.2z"/>
	<path class="st5" d="M583.7,503c-0.2,0.9-0.3,1.8-0.5,2.7c-0.2-0.1-0.6-0.2-0.6-0.3c-0.3-1.1,0.2-1.8,1.3-2.2
		C583.9,503.1,583.7,503,583.7,503z"/>
	<path class="st4" d="M596.5,612c0.6-1.4,1.6-1.7,3-0.9c-0.7,0.6-1.4,1.1-2.1,1.6C597.1,612.5,596.8,612.2,596.5,612z"/>
	<path class="st4" d="M594.4,613.2c0.7-0.4,1.4-0.8,2.1-1.2c0.3,0.3,0.5,0.5,0.8,0.7c-0.7,0.4-1.3,0.8-2,1.3
		C595,613.7,594.7,613.4,594.4,613.2z"/>
	<path class="st6" d="M611.3,632.4c0.2,0.7,0.5,1.4,0.7,2.1C611.8,633.8,611.6,633.1,611.3,632.4z"/>
	<path class="st4" d="M460.3,657c-0.6,0.6-1.2,1.3-1.8,1.9c-7.7-4.4-7.7-4.4-14.4,7.7c-1,0-1.9,0-2.9,0.1
		c3.4-7.7,5.7-15.9,11.1-22.6c0.2,0.5,0.5,1,0.4,1.5c-0.7,4.2-5.1,10.5,5,8.8C458.4,654.2,459.4,656.1,460.3,657z"/>
	<path class="st7" d="M497.3,754.7c-3.5,3.2-0.4,7.5-1.8,11.1c-2.3-11.8-1.7-23.8-0.9-37.7C495.6,738.3,496.5,746.5,497.3,754.7z"/>
	<path class="st2" d="M441.2,666.7c1,0,1.9,0,2.9-0.1c-1.6,3.8-3.2,7.5-4.8,11.3c-1.6-3.2-10.8-2.9-4.5-9.7c0.8,1.4,1.6,2.8,2.6,4.5
		C438.7,670.5,440,668.6,441.2,666.7z"/>
	<path class="st5" d="M486.1,721.1c0.8,0,1.6-0.1,2.4-0.1c0.4,4.6,0.8,9.2,1.2,13.8C487.1,730.5,485.9,725.9,486.1,721.1z"/>
	<path class="st5" d="M487.1,700.4c-1.9-6.4-2.3-12.9,0.2-19.3C487.3,687.5,487.2,693.9,487.1,700.4z"/>
	<path class="st5" d="M488.2,717.9c-1.4-2.6-0.9-5.3-0.7-8C488.6,712.5,489,715.1,488.2,717.9z"/>
	<path class="st5" d="M485.1,712.4c1.1,1.7,1.1,3.7,0.9,5.6C484.8,716.2,484.3,714.4,485.1,712.4z"/>
	<path class="st4" d="M522.9,304.2c-1-1-2-2-3-3c11.4-0.4,22.4,2.3,33.5,4.7c-1.9,1-1.7,2.8-1.6,4.5c-8.6-2.1-17.2-4.1-25.8-6.2
		C525,304.2,523.9,304.2,522.9,304.2z"/>
	<path class="st1" d="M437.2,302.7c-0.2-0.3-0.4-0.7-0.5-1c0-0.1,0.3-0.3,0.4-0.4C437.5,301.7,437.5,302.2,437.2,302.7z"/>
	<path class="st4" d="M628.1,414.6c2.5-6.3,5-12.7,7.5-19c0.9,0,1.8,0.1,2.8,0.1c-2.6,6.4-5.1,12.9-7.7,19.3
		C629.9,414.9,629,414.7,628.1,414.6z"/>
	<path class="st4" d="M558.2,306.4c1.8-0.4,3.5,0.1,5,1C561.4,307.7,559.6,307.9,558.2,306.4z"/>
	<path class="st8" d="M494.5,290.7c0.2-0.8,0.4-1.5,0.5-2.3c0.2,0.5,0.4,1,0.5,1.5C495.2,290.2,494.9,290.5,494.5,290.7z"/>
	<path class="st9" d="M466.7,251.5c-0.4,0.5-0.8,1-1.2,1.5C465.9,252.5,466.3,252,466.7,251.5z"/>
	<path class="st1" d="M494.5,290.7c0.4-0.2,0.7-0.5,1-0.9c0.1,0.5,0,0.9-0.3,1.3C495,291.1,494.7,291,494.5,290.7z"/>
	<path class="st0" d="M537.1,221.1c-0.7,4.2-3.2,7-7.3,7c-4.7,0-7.2-3.1-6.9-7.8c0.2-4.4,3.1-6.8,7.3-6.5
		C534.3,214.1,536.6,217,537.1,221.1z"/>
</g>
</svg>
